<?xml version="1.0" encoding="iso-8859-1"?>
<!-- Generator: Adobe Illustrator 18.0.0, SVG Export Plug-In . SVG Version: 6.00 Build 0)  -->
<!DOCTYPE svg PUBLIC "-//W3C//DTD SVG 1.1//EN" "http://www.w3.org/Graphics/SVG/1.1/DTD/svg11.dtd">
<svg version="1.1" id="Capa_1" xmlns="http://www.w3.org/2000/svg" xmlns:xlink="http://www.w3.org/1999/xlink" x="0px" y="0px"
	 viewBox="0 0 417.219 417.219" style="enable-background:new 0 0 417.219 417.219;" xml:space="preserve">
<g>
	<path d="M0,197.254l91.263,110.878c0.323-0.129,0.646-0.262,0.967-0.398c2.773-1.18,5.458-2.705,7.97-4.557
		c3.794-2.793,6.953-6.92,10.297-11.287c0.753-0.982,1.504-1.963,2.263-2.93c1.583-2.022,3.954-3.268,6.515-3.43
		c0.19-0.012,0.379-0.018,0.568-0.018c2.361,0,4.638,0.928,6.327,2.6c0.957,0.945,1.907,1.906,2.858,2.867
		c4.877,4.93,9.484,9.584,14.924,12.109c4.752,2.205,10.081,3.42,15.006,3.42c2.636,0,5.086-0.348,7.282-1.031
		c0.053-0.016,0.106-0.033,0.159-0.049c5.067-1.475,8.624-3.115,11.532-5.315c3.967-3.002,7.163-6.596,9.5-10.68l7.33-12.811
		l1.852-3.234c1.595-2.787,4.554-4.514,7.764-4.529c0.017,0,0.031,0,0.048,0c3.192,0,6.147,1.691,7.764,4.447l2.349,4.014
		c0.915,1.561,1.811,3.162,2.68,4.713c3.161,5.648,6.431,11.49,10.573,15.242c0.022,0.02,0.045,0.041,0.068,0.063
		c5.871,5.428,13.929,8.801,21.026,8.801c0.146,0,0.294-0.002,0.455-0.006c7.81-0.137,14.41-2.127,20.182-6.086
		c3.538-2.428,6.792-5.91,10.238-9.598c1.079-1.154,2.194-2.348,3.328-3.516c1.699-1.752,4.031-2.732,6.459-2.732
		c0.158,0,0.318,0.004,0.479,0.012c2.597,0.139,5.007,1.393,6.609,3.441c0.877,1.119,1.741,2.258,2.607,3.399
		c2.035,2.682,3.96,5.217,6.011,7.459c4.327,4.322,8.577,7.209,13.364,9.078c2.346,0.916,4.924,1.638,7.686,1.977
		c6.339,0.777,10.301,0.074,12.786-0.461c4.745-1.025,9.263-2.965,13.065-5.609c4.001-2.783,7.439-6.549,11.079-10.533l0.54-0.592
		c1.712-1.873,4.126-2.928,6.643-2.928c0.222,0,0.445,0.008,0.668,0.025c2.753,0.205,5.26,1.662,6.801,3.953l0.729,1.088
		c1.754,2.615,3.442,5.123,5.259,7.391c0.251,0.313,0.506,0.621,0.762,0.924l32.386-104.923l0.2-0.647H0z M87.3,231.5H66.8v-9.75
		h20.5V231.5z M120.3,231.5H99.8v-9.75h20.5V231.5z M274.3,252c-5.799,0-10.5-4.701-10.5-10.5c0-5.799,4.701-10.5,10.5-10.5
		c5.799,0,10.5,4.701,10.5,10.5C284.8,247.299,280.099,252,274.3,252z M314.3,252c-5.799,0-10.5-4.701-10.5-10.5
		c0-5.799,4.701-10.5,10.5-10.5c5.799,0,10.5,4.701,10.5,10.5C324.8,247.299,320.099,252,314.3,252z M354.3,252
		c-5.799,0-10.5-4.701-10.5-10.5c0-5.799,4.701-10.5,10.5-10.5c5.799,0,10.5,4.701,10.5,10.5C364.8,247.299,360.099,252,354.3,252z"
		/>
	<rect x="48.634" y="138.666" width="104.333" height="46.333"/>
	<rect x="170.476" y="138.666" width="104.334" height="46.333"/>
	<rect x="290.647" y="138.837" width="45.482" height="45.991"/>
	<rect x="290.76" y="108.784" width="45.256" height="19.931"/>
	<rect x="346.76" y="108.784" width="45.256" height="19.931"/>
	<rect x="346.647" y="138.837" width="45.482" height="45.991"/>
	<rect x="48.634" y="82.666" width="104.333" height="46.333"/>
	<path d="M379.844,310.953c-3.681-3.795-6.492-8.141-9.43-12.51c-4.125,4.514-8.075,8.93-13.123,12.441
		c-4.884,3.397-10.497,5.764-16.304,7.018c-3.589,0.773-8.737,1.504-15.968,0.572c-3.318-0.428-6.558-1.283-9.677-2.502
		c-6.449-2.516-11.74-6.357-16.594-11.236c-3.32-3.604-6.188-7.682-9.203-11.535c-4.737,4.883-9.309,10.408-14.935,14.268
		c-7.578,5.199-16.05,7.504-25.113,7.664c-0.204,0.004-0.409,0.006-0.613,0.006c-9.876,0-19.999-4.594-27.137-11.193
		c-6.524-5.908-10.577-14.566-14.977-22.076c-0.782-1.338-1.564-2.674-2.348-4.01c-3.061,5.348-6.121,10.693-9.181,16.043
		c-3.025,5.287-7.038,9.723-11.881,13.387c-4.376,3.313-9.235,5.264-14.446,6.781c-3.179,0.99-6.552,1.438-9.958,1.438
		c-6.516,0-13.154-1.639-18.795-4.256c-8.121-3.77-14.065-10.555-20.321-16.74c-4.393,5.602-8.506,11.641-14.305,15.912
		c-7.742,5.703-17.218,9.18-26.868,9.18c-1.12,0-2.241-0.047-3.364-0.143c-5.679-0.484-10.894-1.832-16.128-3.986
		c-4.681-1.926-8.636-5.029-12.564-8.141c-0.655-0.52-3.025-2.348-3.025-2.348s-3.75,4.299-5.658,6.049
		c-3.017,2.77-6.036,5.291-9.529,7.449c-2.852,1.697-5.764,3.121-8.873,4.293c-3.698,1.393-7.476,2.17-11.352,2.82v0.26
		c1.255,0.055,2.496,0.086,3.731,0.086c3.611,0,7.161-0.266,10.799-0.98c4.473-0.84,8.902-2.67,12.9-4.793
		c1.909-1.014,3.704-2.131,5.496-3.342c0.383-0.258,0.766-0.516,1.147-0.773c0.457-0.309,1.251-0.926,1.251-0.926
		s2.115,1.949,3.041,2.772c3.289,2.92,6.781,5.34,10.583,7.541c7.222,4.18,15.358,5.858,23.55,6.613
		c1.291,0.119,2.592,0.178,3.897,0.178c10.146,0,20.597-3.484,29.025-8.691c1.774-1.096,3.477-2.305,5.115-3.594
		c0.41-0.322,0.82-0.646,1.225-0.977c0.28-0.228,0.353-0.353,0.43-0.353c0.071,0,0.146,0.105,0.39,0.326
		c0.534,0.486,1.089,0.947,1.64,1.412c1.948,1.647,4.016,3.156,6.166,4.527c6.302,4.018,13.23,6.725,20.539,8.213
		c3.697,0.752,7.634,1.141,11.593,1.141c5.536,0,11.118-0.762,16.161-2.359c10.456-3.285,20.29-8.799,27.627-17.07
		c10.819,12.34,27.777,19.746,44.396,19.746c3.776,0,7.535-0.383,11.2-1.176c7.711-1.672,14.961-4.449,21.589-8.777
		c2.089-1.363,4.067-2.885,5.954-4.516c0.474-0.408,0.944-0.818,1.403-1.246c0.683,0.582,1.382,1.145,2.087,1.699
		c1.758,1.385,3.626,2.648,5.537,3.813c9.029,5.502,19.481,8.398,29.983,8.398c3.612,0,7.228-0.344,10.796-1.039
		c12.944-2.527,24.8-9.637,32.93-20.049c5.863,5.746,13.147,9.863,20.95,12.316c4.637,1.455,9.411,2.037,14.215,2.037
		c1.3,0,2.602-0.043,3.903-0.121v-0.303c-0.492-0.072-0.985-0.143-1.477-0.213C397.373,323.328,387.429,318.774,379.844,310.953z"/>
</g>
<g>
</g>
<g>
</g>
<g>
</g>
<g>
</g>
<g>
</g>
<g>
</g>
<g>
</g>
<g>
</g>
<g>
</g>
<g>
</g>
<g>
</g>
<g>
</g>
<g>
</g>
<g>
</g>
<g>
</g>
</svg>
